<svg width="585" height="358" viewBox="0 0 585 358" fill="none" xmlns="http://www.w3.org/2000/svg">
<g clip-path="url(#clip0_105_1963)">
<path d="M454.846 254.205C455.586 253.648 456.195 252.935 456.629 252.116C457.064 251.298 457.315 250.394 457.363 249.468C457.411 248.542 457.256 247.617 456.908 246.758C456.56 245.899 456.029 245.126 455.351 244.495L464.428 223.875L452.896 225.832L446.044 245.113C445.06 246.324 444.554 247.853 444.622 249.413C444.689 250.972 445.326 252.452 446.411 253.573C447.496 254.694 448.954 255.377 450.509 255.493C452.063 255.61 453.607 255.152 454.846 254.205Z" fill="#A0616A"/>
<path d="M472.22 162.842L468.915 162.181C468.915 162.181 464.289 164.166 464.95 170.12C465.611 176.074 455.698 207.83 455.698 207.83L446.777 234.293L459.333 236.94L467.594 206.507L472.22 162.842Z" fill="#CCCCCC"/>
<path d="M487.207 264.044H415.401C413.982 264.043 412.621 263.478 411.617 262.473C410.614 261.468 410.049 260.106 410.047 258.685V251.748C410.049 250.327 410.614 248.965 411.617 247.96C412.621 246.955 413.982 246.39 415.401 246.388H487.207C488.626 246.39 489.987 246.955 490.991 247.96C491.994 248.965 492.559 250.327 492.561 251.748V258.685C492.559 260.106 491.994 261.468 490.991 262.473C489.987 263.478 488.626 264.043 487.207 264.044Z" fill="white"/>
<path d="M482.955 340.197L475.71 342.873L461.948 316.174L472.64 312.223L482.955 340.197Z" fill="#A0616A"/>
<path d="M469.772 342.714L483.743 337.551L486.99 346.357L464.222 354.771C463.796 353.614 463.601 352.385 463.649 351.153C463.697 349.921 463.987 348.711 464.503 347.591C465.018 346.472 465.749 345.465 466.653 344.628C467.557 343.791 468.617 343.14 469.772 342.714Z" fill="#2F2E41"/>
<path d="M496.801 351.3L489.086 350.949L486.766 320.994L498.151 321.512L496.801 351.3Z" fill="#A0616A"/>
<path d="M483.461 348.613H498.353V358H474.084C474.084 356.767 474.327 355.547 474.798 354.408C475.269 353.269 475.96 352.234 476.83 351.362C477.701 350.49 478.735 349.799 479.872 349.327C481.01 348.855 482.229 348.613 483.461 348.613Z" fill="#2F2E41"/>
<path d="M462.307 229.001C456.312 235.859 452.789 244.532 452.3 253.631L449.75 301.113L472.219 340.809L484.775 334.193L469.576 304.421L478.828 275.973L503.94 256.126L501.958 227.678L462.307 229.001Z" fill="#2F2E41"/>
<path d="M497.331 253.479L503.94 256.126L498.653 347.424L483.454 345.44L478.828 275.973L497.331 253.479Z" fill="#2F2E41"/>
<path d="M483.269 244.516C483.432 243.603 483.793 242.738 484.326 241.98C484.86 241.222 485.553 240.591 486.356 240.13C487.16 239.669 488.054 239.391 488.977 239.314C489.9 239.236 490.828 239.363 491.697 239.684L505.982 222.27L509.441 233.456L495.346 248.277C494.71 249.703 493.575 250.845 492.154 251.488C490.734 252.131 489.127 252.23 487.638 251.767C486.15 251.303 484.883 250.309 484.078 248.972C483.272 247.636 482.985 246.05 483.269 244.516Z" fill="#A0616A"/>
<path d="M488.542 151.933C497.086 151.933 504.012 144.999 504.012 136.445C504.012 127.892 497.086 120.958 488.542 120.958C479.998 120.958 473.071 127.892 473.071 136.445C473.071 144.999 479.998 151.933 488.542 151.933Z" fill="#A0616A"/>
<path d="M511.54 165.82C511.54 165.82 493.697 148.949 469.246 161.85C469.246 161.85 462.968 225.693 459.002 232.309C459.002 232.309 493.367 227.678 502.618 230.324C502.618 230.324 502.618 202.537 508.566 191.952C514.514 181.367 511.54 165.82 511.54 165.82Z" fill="#CCCCCC"/>
<path d="M504.601 167.473L511.852 166.132C515.472 168.239 518.273 171.51 519.801 175.412C522.444 182.028 529.713 214.446 529.713 214.446L501.297 242.894L495.349 234.293L513.192 210.476L503.94 190.629L504.601 167.473Z" fill="#CCCCCC"/>
<path d="M501.775 144.732C501.841 144.537 501.862 144.33 501.836 144.127C501.81 143.923 501.738 143.728 501.625 143.556C501.512 143.385 501.362 143.241 501.185 143.137C501.008 143.032 500.81 142.97 500.605 142.954C500.186 142.977 499.776 143.085 499.4 143.271C499.024 143.456 498.689 143.717 498.416 144.036C497.856 144.682 497.204 145.242 496.481 145.699C495.733 146.076 494.718 146.022 494.291 145.302C493.891 144.626 494.165 143.721 494.408 142.936C495.025 140.938 495.37 138.865 495.434 136.775C495.504 134.442 495.176 132.006 493.885 130.187C492.22 127.838 489.242 126.946 486.424 127.011C483.606 127.075 480.834 127.946 478.042 128.497C477.079 128.687 475.946 128.784 475.301 128.036C474.616 127.241 474.868 125.955 475.159 124.881C475.916 122.096 476.718 119.216 478.476 116.966C480.376 114.628 483.09 113.098 486.072 112.684C488.935 112.329 491.841 112.66 494.552 113.648C498.968 115.042 502.854 117.752 505.69 121.416C508.613 125.313 509.877 130.21 509.203 135.036C508.546 139.24 506.321 143.038 502.977 145.664" fill="#2F2E41"/>
<path d="M341.391 266.102H5.66886C4.1659 266.101 2.72499 265.502 1.66224 264.438C0.59949 263.374 0.0016938 261.932 0 260.427V5.67517C0.00174538 4.17056 0.599559 2.72807 1.6623 1.66415C2.72504 0.600226 4.16592 0.00174732 5.66886 0H341.391C342.894 0.00169569 344.335 0.600167 345.398 1.6641C346.461 2.72803 347.059 4.17054 347.06 5.67517V260.427C347.059 261.932 346.461 263.374 345.398 264.438C344.335 265.502 342.894 266.101 341.391 266.102ZM5.66886 1.26115C4.49989 1.26246 3.37918 1.72793 2.55259 2.55543C1.72601 3.38294 1.26106 4.5049 1.25975 5.67517V260.427C1.26111 261.597 1.72607 262.719 2.55264 263.547C3.37922 264.374 4.49991 264.84 5.66886 264.841H341.391C342.56 264.84 343.681 264.374 344.507 263.547C345.334 262.719 345.799 261.597 345.8 260.427V5.67517C345.799 4.50492 345.334 3.38298 344.508 2.55549C343.681 1.728 342.56 1.26251 341.391 1.26115H5.66886Z" fill="#E6E6E6"/>
<path d="M308.638 60.5351H38.4223C36.9193 60.5333 35.4785 59.9349 34.4157 58.8709C33.353 57.807 32.7552 56.3645 32.7534 54.8599V35.3121C32.7552 33.8075 33.353 32.365 34.4157 31.3011C35.4785 30.2372 36.9193 29.6387 38.4223 29.637H308.638C310.141 29.6387 311.582 30.2371 312.645 31.3011C313.707 32.365 314.305 33.8075 314.307 35.3121V54.8599C314.305 56.3646 313.707 57.8071 312.645 58.871C311.582 59.9349 310.141 60.5334 308.638 60.5351ZM38.4223 30.8981C37.2533 30.8994 36.1326 31.3649 35.306 32.1924C34.4794 33.0199 34.0145 34.1419 34.0132 35.3121V54.8599C34.0145 56.0302 34.4794 57.1522 35.306 57.9797C36.1326 58.8072 37.2533 59.2726 38.4223 59.2739H308.638C309.807 59.2726 310.928 58.8071 311.754 57.9796C312.581 57.1521 313.046 56.0302 313.047 54.8599V35.3121C313.046 34.1419 312.581 33.0199 311.754 32.1925C310.928 31.365 309.807 30.8995 308.638 30.8981H38.4223Z" fill="#3F3D56"/>
<path d="M145.501 112.873H38.4223C36.9193 112.871 35.4785 112.273 34.4157 111.209C33.353 110.145 32.7552 108.702 32.7534 107.198V87.6498C32.7552 86.1452 33.353 84.7027 34.4157 83.6388C35.4785 82.5749 36.9193 81.9764 38.4223 81.9746H145.501C147.004 81.9764 148.445 82.5749 149.507 83.6388C150.57 84.7027 151.168 86.1452 151.17 87.6498V107.198C151.168 108.702 150.57 110.145 149.507 111.209C148.445 112.273 147.004 112.871 145.501 112.873ZM38.4223 83.2358C37.2533 83.2371 36.1326 83.7026 35.306 84.5301C34.4794 85.3576 34.0145 86.4795 34.0132 87.6498V107.198C34.0145 108.368 34.4794 109.49 35.306 110.317C36.1326 111.145 37.2533 111.61 38.4223 111.612H145.501C146.67 111.61 147.79 111.145 148.617 110.317C149.444 109.49 149.909 108.368 149.91 107.198V87.6498C149.909 86.4795 149.444 85.3576 148.617 84.5301C147.79 83.7026 146.67 83.2371 145.501 83.2358H38.4223Z" fill="#3F3D56"/>
<path d="M308.638 112.873H201.559C200.057 112.871 198.616 112.273 197.553 111.209C196.49 110.145 195.892 108.702 195.891 107.198V87.6498C195.892 86.1452 196.49 84.7027 197.553 83.6388C198.616 82.5749 200.057 81.9764 201.559 81.9746H308.638C310.141 81.9763 311.582 82.5748 312.645 83.6387C313.707 84.7027 314.305 86.1452 314.307 87.6498V107.198C314.305 108.702 313.707 110.145 312.645 111.209C311.582 112.273 310.141 112.871 308.638 112.873ZM201.559 83.2358C200.391 83.2371 199.27 83.7026 198.443 84.5301C197.617 85.3576 197.152 86.4795 197.15 87.6498V107.198C197.152 108.368 197.617 109.49 198.443 110.317C199.27 111.145 200.391 111.61 201.559 111.612H308.638C309.807 111.61 310.928 111.145 311.754 110.317C312.581 109.49 313.046 108.368 313.047 107.198V87.6498C313.046 86.4796 312.581 85.3576 311.754 84.5301C310.928 83.7026 309.807 83.2372 308.638 83.2358H201.559Z" fill="#3F3D56"/>
<path d="M308.953 236.465H237.147C235.728 236.464 234.367 235.898 233.363 234.894C232.36 233.889 231.795 232.526 231.793 231.105V224.169C231.795 222.748 232.36 221.386 233.363 220.381C234.367 219.376 235.728 218.811 237.147 218.809H308.953C310.372 218.811 311.733 219.376 312.737 220.381C313.741 221.386 314.305 222.748 314.307 224.169V231.105C314.305 232.526 313.741 233.889 312.737 234.894C311.733 235.898 310.372 236.464 308.953 236.465Z" fill="#E6E6E6"/>
<path d="M50.3901 145.663C49.3934 145.663 48.4192 145.367 47.5906 144.812C46.7619 144.258 46.116 143.47 45.7346 142.548C45.3533 141.627 45.2535 140.612 45.4479 139.634C45.6423 138.655 46.1222 137.756 46.827 137.051C47.5317 136.345 48.4295 135.865 49.407 135.67C50.3845 135.476 51.3976 135.576 52.3184 135.957C53.2392 136.339 54.0261 136.986 54.5798 137.815C55.1335 138.645 55.429 139.62 55.429 140.618C55.4275 141.955 54.8961 143.238 53.9515 144.183C53.0068 145.129 51.726 145.661 50.3901 145.663ZM50.3901 136.835C49.6426 136.835 48.9119 137.056 48.2904 137.472C47.6689 137.888 47.1845 138.479 46.8985 139.17C46.6125 139.862 46.5376 140.622 46.6834 141.356C46.8293 142.09 47.1892 142.764 47.7177 143.293C48.2463 143.822 48.9197 144.183 49.6528 144.329C50.3859 144.475 51.1457 144.4 51.8363 144.113C52.5269 143.827 53.1171 143.342 53.5324 142.72C53.9477 142.098 54.1693 141.366 54.1693 140.618C54.1682 139.615 53.7697 138.653 53.0612 137.944C52.3527 137.235 51.392 136.836 50.3901 136.835Z" fill="#E6E6E6"/>
<path d="M50.3901 162.058C49.3934 162.058 48.4192 161.762 47.5906 161.207C46.7619 160.653 46.116 159.865 45.7346 158.943C45.3533 158.022 45.2535 157.007 45.4479 156.029C45.6423 155.05 46.1222 154.151 46.827 153.446C47.5317 152.74 48.4295 152.26 49.407 152.065C50.3845 151.871 51.3976 151.971 52.3184 152.352C53.2392 152.734 54.0261 153.381 54.5798 154.21C55.1335 155.04 55.429 156.015 55.429 157.013C55.4275 158.35 54.8961 159.633 53.9515 160.578C53.0068 161.524 51.726 162.056 50.3901 162.058ZM50.3901 153.23C49.6426 153.23 48.9119 153.451 48.2904 153.867C47.6689 154.283 47.1845 154.874 46.8985 155.565C46.6125 156.256 46.5376 157.017 46.6834 157.751C46.8293 158.485 47.1892 159.159 47.7177 159.688C48.2463 160.217 48.9197 160.578 49.6528 160.724C50.3859 160.87 51.1457 160.795 51.8363 160.508C52.5269 160.222 53.1171 159.737 53.5324 159.115C53.9477 158.493 54.1693 157.761 54.1693 157.013C54.1682 156.01 53.7697 155.048 53.0612 154.339C52.3527 153.63 51.392 153.231 50.3901 153.23Z" fill="#E6E6E6"/>
<path d="M50.3901 178.452C49.3934 178.452 48.4192 178.157 47.5906 177.602C46.7619 177.048 46.116 176.26 45.7346 175.338C45.3533 174.417 45.2535 173.402 45.4479 172.424C45.6423 171.445 46.1222 170.546 46.827 169.841C47.5317 169.135 48.4295 168.655 49.407 168.46C50.3845 168.266 51.3976 168.365 52.3184 168.747C53.2392 169.129 54.0261 169.776 54.5798 170.605C55.1335 171.435 55.429 172.41 55.429 173.408C55.4275 174.745 54.8961 176.028 53.9515 176.973C53.0068 177.919 51.726 178.451 50.3901 178.452ZM50.3901 169.624C49.6426 169.624 48.9119 169.846 48.2904 170.262C47.6689 170.678 47.1845 171.269 46.8985 171.96C46.6125 172.651 46.5376 173.412 46.6834 174.146C46.8293 174.88 47.1892 175.554 47.7177 176.083C48.2463 176.612 48.9197 176.973 49.6528 177.119C50.3859 177.265 51.1457 177.19 51.8363 176.903C52.5269 176.617 53.1171 176.132 53.5324 175.51C53.9477 174.888 54.1693 174.156 54.1693 173.408C54.1682 172.405 53.7697 171.443 53.0612 170.734C52.3527 170.024 51.392 169.626 50.3901 169.624Z" fill="#3F3D56"/>
<path d="M74.955 136.519C73.8692 136.519 72.8278 136.951 72.06 137.72C71.2922 138.488 70.8608 139.531 70.8608 140.618C70.8608 141.705 71.2922 142.748 72.06 143.516C72.8278 144.285 73.8692 144.717 74.955 144.717H133.533C134.619 144.717 135.66 144.285 136.428 143.516C137.196 142.748 137.627 141.705 137.627 140.618C137.627 139.531 137.196 138.488 136.428 137.72C135.66 136.951 134.619 136.519 133.533 136.519H74.955Z" fill="#E6E6E6"/>
<path d="M74.955 152.914C73.8692 152.914 72.8278 153.346 72.06 154.115C71.2922 154.883 70.8608 155.926 70.8608 157.013C70.8608 158.1 71.2922 159.143 72.06 159.911C72.8278 160.68 73.8692 161.112 74.955 161.112H133.533C134.619 161.112 135.66 160.68 136.428 159.911C137.196 159.143 137.627 158.1 137.627 157.013C137.627 155.926 137.196 154.883 136.428 154.115C135.66 153.346 134.619 152.914 133.533 152.914H74.955Z" fill="#E6E6E6"/>
<path d="M74.955 169.309C73.8692 169.309 72.8278 169.741 72.06 170.51C71.2922 171.278 70.8608 172.321 70.8608 173.408C70.8608 174.495 71.2922 175.537 72.06 176.306C72.8278 177.075 73.8692 177.507 74.955 177.507H133.533C134.619 177.507 135.66 177.075 136.428 176.306C137.196 175.537 137.627 174.495 137.627 173.408C137.627 172.321 137.196 171.278 136.428 170.51C135.66 169.741 134.619 169.309 133.533 169.309H74.955Z" fill="#E6E6E6"/>
<path d="M213.842 145.663C212.846 145.663 211.871 145.367 211.043 144.812C210.214 144.258 209.568 143.47 209.187 142.548C208.805 141.627 208.706 140.612 208.9 139.634C209.094 138.655 209.574 137.756 210.279 137.051C210.984 136.345 211.882 135.865 212.859 135.67C213.837 135.476 214.85 135.576 215.771 135.957C216.691 136.339 217.478 136.986 218.032 137.815C218.586 138.645 218.881 139.62 218.881 140.618C218.88 141.955 218.348 143.238 217.404 144.183C216.459 145.129 215.178 145.661 213.842 145.663ZM213.842 136.835C213.095 136.835 212.364 137.056 211.743 137.472C211.121 137.888 210.637 138.479 210.351 139.17C210.065 139.862 209.99 140.622 210.136 141.356C210.281 142.09 210.641 142.764 211.17 143.293C211.698 143.822 212.372 144.183 213.105 144.329C213.838 144.475 214.598 144.4 215.288 144.113C215.979 143.827 216.569 143.342 216.985 142.72C217.4 142.098 217.621 141.366 217.621 140.618C217.62 139.615 217.222 138.653 216.513 137.944C215.805 137.235 214.844 136.836 213.842 136.835Z" fill="#E6E6E6"/>
<path d="M213.842 162.058C212.846 162.058 211.871 161.762 211.043 161.207C210.214 160.653 209.568 159.865 209.187 158.943C208.805 158.022 208.706 157.007 208.9 156.029C209.094 155.05 209.574 154.151 210.279 153.446C210.984 152.74 211.882 152.26 212.859 152.065C213.837 151.871 214.85 151.971 215.771 152.352C216.691 152.734 217.478 153.381 218.032 154.21C218.586 155.04 218.881 156.015 218.881 157.013C218.88 158.35 218.348 159.633 217.404 160.578C216.459 161.524 215.178 162.056 213.842 162.058ZM213.842 153.23C213.095 153.23 212.364 153.451 211.743 153.867C211.121 154.283 210.637 154.874 210.351 155.565C210.065 156.256 209.99 157.017 210.136 157.751C210.281 158.485 210.641 159.159 211.17 159.688C211.698 160.217 212.372 160.578 213.105 160.724C213.838 160.87 214.598 160.795 215.288 160.508C215.979 160.222 216.569 159.737 216.985 159.115C217.4 158.493 217.621 157.761 217.621 157.013C217.62 156.01 217.222 155.048 216.513 154.339C215.805 153.63 214.844 153.231 213.842 153.23Z" fill="#3F3D56"/>
<path d="M213.842 178.452C212.846 178.452 211.871 178.157 211.043 177.602C210.214 177.048 209.568 176.26 209.187 175.338C208.805 174.417 208.706 173.402 208.9 172.424C209.094 171.445 209.574 170.546 210.279 169.841C210.984 169.135 211.882 168.655 212.859 168.46C213.837 168.266 214.85 168.365 215.771 168.747C216.691 169.129 217.478 169.776 218.032 170.605C218.586 171.435 218.881 172.41 218.881 173.408C218.88 174.745 218.348 176.028 217.404 176.973C216.459 177.919 215.178 178.451 213.842 178.452ZM213.842 169.624C213.095 169.624 212.364 169.846 211.743 170.262C211.121 170.678 210.637 171.269 210.351 171.96C210.065 172.651 209.99 173.412 210.136 174.146C210.281 174.88 210.641 175.554 211.17 176.083C211.698 176.612 212.372 176.973 213.105 177.119C213.838 177.265 214.598 177.19 215.288 176.903C215.979 176.617 216.569 176.132 216.985 175.51C217.4 174.888 217.621 174.156 217.621 173.408C217.62 172.405 217.222 171.443 216.513 170.734C215.805 170.024 214.844 169.626 213.842 169.624Z" fill="#E6E6E6"/>
<path d="M213.842 194.847C212.846 194.847 211.871 194.552 211.043 193.997C210.214 193.443 209.568 192.655 209.187 191.733C208.805 190.811 208.706 189.797 208.9 188.819C209.094 187.84 209.574 186.941 210.279 186.236C210.984 185.53 211.882 185.05 212.859 184.855C213.837 184.66 214.85 184.76 215.771 185.142C216.691 185.524 217.478 186.171 218.032 187C218.586 187.83 218.881 188.805 218.881 189.803C218.88 191.14 218.348 192.422 217.404 193.368C216.459 194.314 215.178 194.846 213.842 194.847ZM213.842 186.019C213.095 186.019 212.364 186.241 211.743 186.657C211.121 187.073 210.637 187.664 210.351 188.355C210.065 189.046 209.99 189.807 210.136 190.541C210.281 191.275 210.641 191.949 211.17 192.478C211.698 193.007 212.372 193.368 213.105 193.514C213.838 193.659 214.598 193.585 215.288 193.298C215.979 193.012 216.569 192.527 216.985 191.905C217.4 191.283 217.621 190.551 217.621 189.803C217.62 188.8 217.222 187.838 216.513 187.129C215.805 186.419 214.844 186.02 213.842 186.019Z" fill="#E6E6E6"/>
<path d="M237.777 136.519C236.691 136.519 235.65 136.951 234.882 137.72C234.114 138.488 233.683 139.531 233.683 140.618C233.683 141.705 234.114 142.748 234.882 143.516C235.65 144.285 236.691 144.717 237.777 144.717H296.356C297.441 144.717 298.483 144.285 299.251 143.516C300.018 142.748 300.45 141.705 300.45 140.618C300.45 139.531 300.018 138.488 299.251 137.72C298.483 136.951 297.441 136.519 296.356 136.519H237.777Z" fill="#E6E6E6"/>
<path d="M237.777 152.914C236.691 152.914 235.65 153.346 234.882 154.115C234.114 154.883 233.683 155.926 233.683 157.013C233.683 158.1 234.114 159.143 234.882 159.911C235.65 160.68 236.691 161.112 237.777 161.112H296.356C297.441 161.112 298.483 160.68 299.251 159.911C300.018 159.143 300.45 158.1 300.45 157.013C300.45 155.926 300.018 154.883 299.251 154.115C298.483 153.346 297.441 152.914 296.356 152.914H237.777Z" fill="#E6E6E6"/>
<path d="M237.777 169.309C236.691 169.309 235.65 169.741 234.882 170.51C234.114 171.278 233.683 172.321 233.683 173.408C233.683 174.495 234.114 175.537 234.882 176.306C235.65 177.075 236.691 177.507 237.777 177.507H296.356C297.441 177.507 298.483 177.075 299.251 176.306C300.018 175.537 300.45 174.495 300.45 173.408C300.45 172.321 300.018 171.278 299.251 170.51C298.483 169.741 297.441 169.309 296.356 169.309H237.777Z" fill="#E6E6E6"/>
<path d="M237.777 185.704C236.691 185.704 235.65 186.136 234.882 186.905C234.114 187.673 233.683 188.716 233.683 189.803C233.683 190.89 234.114 191.932 234.882 192.701C235.65 193.47 236.691 193.902 237.777 193.902H296.356C297.441 193.902 298.483 193.47 299.251 192.701C300.018 191.932 300.45 190.89 300.45 189.803C300.45 188.716 300.018 187.673 299.251 186.905C298.483 186.136 297.441 185.704 296.356 185.704H237.777Z" fill="#E6E6E6"/>
<path d="M50.4697 93.325C49.3838 93.325 48.3425 93.7568 47.5746 94.5254C46.8068 95.2941 46.3755 96.3366 46.3755 97.4237C46.3755 98.5107 46.8068 99.5533 47.5746 100.322C48.3425 101.091 49.3838 101.522 50.4697 101.522H120.386C121.471 101.522 122.513 101.091 123.281 100.322C124.048 99.5533 124.48 98.5107 124.48 97.4237C124.48 96.3366 124.048 95.2941 123.281 94.5254C122.513 93.7568 121.471 93.325 120.386 93.325H50.4697Z" fill="#E6E6E6"/>
<path d="M50.4697 40.9873C49.3838 40.9873 48.3425 41.4191 47.5746 42.1878C46.8068 42.9565 46.3755 43.999 46.3755 45.086C46.3755 46.1731 46.8068 47.2156 47.5746 47.9843C48.3425 48.7529 49.3838 49.1848 50.4697 49.1848H120.386C121.471 49.1848 122.513 48.7529 123.281 47.9843C124.048 47.2156 124.48 46.1731 124.48 45.086C124.48 43.999 124.048 42.9565 123.281 42.1878C122.513 41.4191 121.471 40.9873 120.386 40.9873H50.4697Z" fill="white"/>
<path d="M131.885 94.7907C131.83 94.7907 131.775 94.8053 131.727 94.8329C131.679 94.8606 131.64 94.9004 131.612 94.9483C131.584 94.9963 131.57 95.0506 131.57 95.106C131.57 95.1613 131.584 95.2157 131.612 95.2636L134.285 99.899C134.313 99.947 134.353 99.9868 134.401 100.014C134.448 100.042 134.503 100.057 134.558 100.057C134.613 100.057 134.668 100.042 134.716 100.014C134.763 99.9868 134.803 99.947 134.831 99.899L137.504 95.2636C137.532 95.2157 137.546 95.1613 137.546 95.106C137.546 95.0506 137.532 94.9963 137.504 94.9483C137.476 94.9004 137.437 94.8606 137.389 94.8329C137.341 94.8053 137.287 94.7907 137.231 94.7907H131.885Z" fill="white"/>
<path d="M213.607 93.325C212.521 93.325 211.48 93.7568 210.712 94.5254C209.944 95.2941 209.513 96.3366 209.513 97.4237C209.513 98.5107 209.944 99.5533 210.712 100.322C211.48 101.091 212.521 101.522 213.607 101.522H283.523C284.609 101.522 285.65 101.091 286.418 100.322C287.186 99.5533 287.617 98.5107 287.617 97.4237C287.617 96.3366 287.186 95.2941 286.418 94.5254C285.65 93.7568 284.609 93.325 283.523 93.325H213.607Z" fill="#E6E6E6"/>
<path d="M295.022 94.7907C294.967 94.7907 294.912 94.8053 294.865 94.8329C294.817 94.8606 294.777 94.9004 294.749 94.9483C294.722 94.9963 294.707 95.0506 294.707 95.106C294.707 95.1613 294.722 95.2157 294.749 95.2636L297.422 99.899C297.45 99.947 297.49 99.9868 297.538 100.014C297.586 100.042 297.64 100.057 297.695 100.057C297.751 100.057 297.805 100.042 297.853 100.014C297.901 99.9868 297.94 99.947 297.968 99.899L300.641 95.2636C300.669 95.2157 300.684 95.1613 300.684 95.106C300.684 95.0506 300.669 94.9963 300.641 94.9483C300.614 94.9004 300.574 94.8606 300.526 94.8329C300.478 94.8053 300.424 94.7907 300.369 94.7907H295.022Z" fill="white"/>
<path d="M213.842 159.535C215.233 159.535 216.361 158.406 216.361 157.013C216.361 155.62 215.233 154.491 213.842 154.491C212.45 154.491 211.322 155.62 211.322 157.013C211.322 158.406 212.45 159.535 213.842 159.535Z" fill="white"/>
<path d="M50.3901 175.93C51.7816 175.93 52.9096 174.801 52.9096 173.408C52.9096 172.015 51.7816 170.886 50.3901 170.886C48.9986 170.886 47.8706 172.015 47.8706 173.408C47.8706 174.801 48.9986 175.93 50.3901 175.93Z" fill="white"/>
<path d="M584.25 358H382.505C382.306 358 382.116 357.921 381.975 357.78C381.834 357.639 381.755 357.448 381.755 357.249C381.755 357.05 381.834 356.859 381.975 356.718C382.116 356.577 382.306 356.498 382.505 356.498H584.25C584.449 356.498 584.64 356.577 584.78 356.718C584.921 356.859 585 357.05 585 357.249C585 357.448 584.921 357.639 584.78 357.78C584.64 357.921 584.449 358 584.25 358Z" fill="#3F3D56"/>
</g>
<defs>
<clipPath id="clip0_105_1963">
<rect width="585" height="358" fill="white"/>
</clipPath>
</defs>
</svg>
