<svg width="335" height="302" viewBox="0 0 335 302" fill="none" xmlns="http://www.w3.org/2000/svg">
<g clip-path="url(#clip0_105_1901)">
<path d="M208.134 175.493H85.4313C81.2703 175.488 77.2811 173.833 74.3388 170.891C71.3965 167.949 69.7415 163.959 69.7368 159.798V15.6945C69.7415 11.5335 71.3965 7.54427 74.3388 4.602C77.2811 1.65973 81.2703 0.00470026 85.4313 0H199.586L223.828 19.3227V159.798C223.823 163.959 222.168 167.949 219.226 170.891C216.284 173.833 212.295 175.488 208.134 175.493Z" fill="#E6E6E6"/>
<path d="M85.4313 4.5181C82.4681 4.52144 79.6273 5.70002 77.5321 7.79527C75.4368 9.89053 74.2582 12.7313 74.2549 15.6945V159.798C74.2582 162.762 75.4368 165.602 77.5321 167.698C79.6273 169.793 82.4681 170.971 85.4313 170.975H208.134C211.097 170.971 213.938 169.793 216.033 167.698C218.128 165.602 219.307 162.762 219.31 159.798V21.4993L198.005 4.5181H85.4313Z" fill="white"/>
<path d="M184.268 46.4197H128.404C128.06 46.4197 127.721 46.3521 127.403 46.2207C127.086 46.0894 126.798 45.8969 126.556 45.6542C126.313 45.4115 126.12 45.1234 125.989 44.8063C125.858 44.4892 125.79 44.1493 125.79 43.8061C125.79 43.4629 125.858 43.123 125.989 42.806C126.12 42.4889 126.313 42.2007 126.556 41.9581C126.798 41.7154 127.086 41.5229 127.403 41.3915C127.721 41.2602 128.06 41.1926 128.404 41.1926H184.268C184.611 41.1926 184.951 41.2602 185.268 41.3915C185.586 41.5229 185.874 41.7154 186.116 41.9581C186.359 42.2007 186.552 42.4889 186.683 42.806C186.814 43.123 186.882 43.4629 186.882 43.8061C186.882 44.1493 186.814 44.4892 186.683 44.8063C186.552 45.1234 186.359 45.4115 186.116 45.6542C185.874 45.8969 185.586 46.0894 185.268 46.2207C184.951 46.3521 184.611 46.4197 184.268 46.4197Z" fill="#CCCCCC"/>
<path d="M195.049 55.2404H128.404C127.71 55.2404 127.046 54.9651 126.556 54.4749C126.065 53.9848 125.79 53.32 125.79 52.6269C125.79 51.9337 126.065 51.2689 126.556 50.7788C127.046 50.2887 127.71 50.0133 128.404 50.0133H195.049C195.742 50.0133 196.407 50.2887 196.897 50.7788C197.387 51.2689 197.663 51.9337 197.663 52.6269C197.663 53.32 197.387 53.9848 196.897 54.4749C196.407 54.9651 195.742 55.2404 195.049 55.2404Z" fill="#CCCCCC"/>
<path d="M184.268 85.9496H128.404C127.71 85.9496 127.046 85.6743 126.556 85.1841C126.065 84.694 125.79 84.0292 125.79 83.3361C125.79 82.6429 126.065 81.9782 126.556 81.488C127.046 80.9979 127.71 80.7225 128.404 80.7225H184.268C184.961 80.7225 185.626 80.9979 186.116 81.488C186.606 81.9782 186.882 82.6429 186.882 83.3361C186.882 84.0292 186.606 84.694 186.116 85.1841C185.626 85.6743 184.961 85.9496 184.268 85.9496Z" fill="#CCCCCC"/>
<path d="M195.049 94.7704H128.404C127.71 94.7704 127.046 94.495 126.556 94.0049C126.065 93.5147 125.79 92.85 125.79 92.1568C125.79 91.4637 126.065 90.7989 126.556 90.3088C127.046 89.8186 127.71 89.5433 128.404 89.5433H195.049C195.742 89.5433 196.407 89.8186 196.897 90.3088C197.387 90.7989 197.663 91.4637 197.663 92.1568C197.663 92.85 197.387 93.5147 196.897 94.0049C196.407 94.495 195.742 94.7704 195.049 94.7704Z" fill="#CCCCCC"/>
<path d="M184.268 125.48H128.404C127.71 125.48 127.046 125.204 126.556 124.714C126.065 124.224 125.79 123.559 125.79 122.866C125.79 122.173 126.065 121.508 126.556 121.018C127.046 120.528 127.71 120.253 128.404 120.253H184.268C184.961 120.253 185.626 120.528 186.116 121.018C186.606 121.508 186.882 122.173 186.882 122.866C186.882 123.559 186.606 124.224 186.116 124.714C185.626 125.204 184.961 125.48 184.268 125.48Z" fill="#CCCCCC"/>
<path d="M195.049 134.3H128.404C127.71 134.3 127.046 134.025 126.556 133.535C126.065 133.045 125.79 132.38 125.79 131.687C125.79 130.994 126.065 130.329 126.556 129.839C127.046 129.349 127.71 129.073 128.404 129.073H195.049C195.742 129.073 196.407 129.349 196.897 129.839C197.387 130.329 197.663 130.994 197.663 131.687C197.663 132.38 197.387 133.045 196.897 133.535C196.407 134.025 195.742 134.3 195.049 134.3Z" fill="#CCCCCC"/>
<path d="M105.14 57.4539C110.242 57.4539 114.377 53.3182 114.377 48.2165C114.377 43.1148 110.242 38.979 105.14 38.979C100.038 38.979 95.9023 43.1148 95.9023 48.2165C95.9023 53.3182 100.038 57.4539 105.14 57.4539Z" fill="white"/>
<path d="M104.225 51.7403C104.017 51.7407 103.814 51.6734 103.648 51.5488L103.638 51.541L101.467 49.8803C101.264 49.7246 101.131 49.4947 101.098 49.2411C101.065 48.9876 101.133 48.7312 101.289 48.5283C101.445 48.3253 101.674 48.1924 101.928 48.1588C102.181 48.1252 102.438 48.1937 102.641 48.3491L104.047 49.4274L107.37 45.0924C107.447 44.9919 107.543 44.9076 107.653 44.8442C107.762 44.7808 107.883 44.7397 108.009 44.7231C108.134 44.7065 108.262 44.7148 108.384 44.7475C108.507 44.7803 108.621 44.8368 108.722 44.9138L108.702 44.9427L108.723 44.914C108.926 45.0699 109.058 45.2998 109.092 45.5533C109.125 45.8068 109.057 46.0633 108.901 46.2663L104.993 51.363C104.902 51.4804 104.786 51.5754 104.653 51.6407C104.52 51.7059 104.374 51.7396 104.225 51.7392L104.225 51.7403Z" fill="white"/>
<path d="M106.091 96.9839C111.193 96.9839 115.328 92.8482 115.328 87.7464C115.328 82.6447 111.193 78.509 106.091 78.509C100.989 78.509 96.8535 82.6447 96.8535 87.7464C96.8535 92.8482 100.989 96.9839 106.091 96.9839Z" fill="#CCCCCC"/>
<path d="M105.14 136.514C110.242 136.514 114.377 132.378 114.377 127.276C114.377 122.175 110.242 118.039 105.14 118.039C100.038 118.039 95.9023 122.175 95.9023 127.276C95.9023 132.378 100.038 136.514 105.14 136.514Z" fill="#CCCCCC"/>
<path d="M223.356 19.9446H204.366C202.98 19.9446 201.65 19.3939 200.67 18.4136C199.69 17.4333 199.139 16.1038 199.139 14.7175V0.691843C199.139 0.630437 199.156 0.57027 199.189 0.51825C199.222 0.46623 199.268 0.424459 199.324 0.397726C199.379 0.370994 199.441 0.360382 199.502 0.367109C199.563 0.373837 199.621 0.39763 199.669 0.43576L223.559 19.3618C223.612 19.4039 223.651 19.4615 223.67 19.5267C223.689 19.5918 223.687 19.6612 223.665 19.7253C223.642 19.7893 223.601 19.8449 223.545 19.8842C223.49 19.9235 223.424 19.9446 223.356 19.9446Z" fill="#E6E6E6"/>
<path d="M94.8078 202.493L22.2109 217.795C20.1129 218.235 17.9262 217.825 16.1305 216.654C14.3347 215.484 13.0766 213.649 12.6322 211.552L0.17463 152.45C-0.265118 150.352 0.145281 148.166 1.31579 146.37C2.4863 144.574 4.32133 143.316 6.41829 142.872L79.0152 127.569C81.1132 127.13 83.2999 127.54 85.0957 128.711C86.8914 129.881 88.1495 131.716 88.594 133.813L101.052 192.915C101.491 195.012 101.081 197.199 99.9104 198.995C98.7398 200.791 96.9048 202.049 94.8078 202.493Z" fill="white"/>
<path d="M94.8078 202.493L22.2109 217.795C20.1129 218.235 17.9262 217.825 16.1305 216.654C14.3347 215.484 13.0766 213.649 12.6322 211.552L0.17463 152.45C-0.265118 150.352 0.145281 148.166 1.31579 146.37C2.4863 144.574 4.32133 143.316 6.41829 142.872L79.0152 127.569C81.1132 127.13 83.2999 127.54 85.0957 128.711C86.8914 129.881 88.1495 131.716 88.594 133.813L101.052 192.915C101.491 195.012 101.081 197.199 99.9104 198.995C98.7398 200.791 96.9048 202.049 94.8078 202.493ZM6.61447 143.802C4.76422 144.195 3.14508 145.305 2.11228 146.889C1.07948 148.474 0.717355 150.403 1.10535 152.254L13.5629 211.356C13.9551 213.206 15.0652 214.825 16.6497 215.858C18.2341 216.891 20.1636 217.253 22.0147 216.865L94.6117 201.563C96.4619 201.17 98.081 200.06 99.1138 198.476C100.147 196.891 100.509 194.962 100.121 193.111L87.6633 134.009C87.2711 132.159 86.161 130.54 84.5765 129.507C82.992 128.474 81.0626 128.112 79.2114 128.5L6.61447 143.802Z" fill="#3F3D56"/>
<path d="M74.5047 147.057L37.866 154.78C37.5453 154.854 37.2084 154.804 36.9233 154.64C36.6382 154.475 36.4262 154.208 36.3301 153.894C36.2862 153.729 36.2762 153.558 36.3007 153.39C36.3252 153.222 36.3837 153.06 36.4726 152.915C36.5616 152.771 36.6791 152.645 36.818 152.548C36.9569 152.45 37.1143 152.381 37.2806 152.346L74.5766 144.485C76.0328 145.305 75.573 146.832 74.5047 147.057Z" fill="#CCCCCC"/>
<path d="M75.8592 153.484L39.2204 161.206C38.8998 161.281 38.5629 161.231 38.2778 161.066C37.9927 160.902 37.7807 160.635 37.6846 160.32C37.6407 160.156 37.6307 159.985 37.6552 159.817C37.6797 159.648 37.7382 159.487 37.8271 159.342C37.916 159.197 38.0336 159.072 38.1725 158.974C38.3114 158.876 38.4688 158.808 38.6351 158.773L75.9311 150.911C77.3874 151.732 76.9275 153.258 75.8592 153.484Z" fill="#CCCCCC"/>
<path d="M32.0715 166.535L20.8898 168.892C20.5246 168.969 20.144 168.897 19.8314 168.693C19.5188 168.49 19.2998 168.17 19.2225 167.805L16.4411 154.61C16.3645 154.245 16.436 153.864 16.6397 153.551C16.8434 153.239 17.1629 153.02 17.5279 152.943L28.7097 150.586C29.0748 150.509 29.4554 150.581 29.768 150.784C30.0805 150.988 30.2995 151.307 30.377 151.672L33.1583 164.868C33.2349 165.233 33.1635 165.614 32.9597 165.926C32.756 166.239 32.4366 166.458 32.0715 166.535Z" fill="#CCCCCC"/>
<path d="M78.5265 166.665L22.6091 178.451C22.2885 178.525 21.9516 178.475 21.6665 178.311C21.3814 178.146 21.1694 177.88 21.0733 177.565C21.0294 177.401 21.0193 177.229 21.0438 177.061C21.0683 176.893 21.1268 176.732 21.2158 176.587C21.3047 176.442 21.4222 176.317 21.5612 176.219C21.7001 176.121 21.8575 176.052 22.0238 176.017L78.5989 164.092C80.0551 164.913 79.5949 166.439 78.5265 166.665Z" fill="#CCCCCC"/>
<path d="M79.8815 173.093L23.9641 184.88C23.6435 184.954 23.3066 184.904 23.0215 184.739C22.7364 184.575 22.5243 184.308 22.4283 183.994C22.3843 183.829 22.3743 183.658 22.3988 183.49C22.4233 183.322 22.4818 183.16 22.5708 183.015C22.6597 182.871 22.7772 182.745 22.9161 182.648C23.0551 182.55 23.2125 182.481 23.3788 182.446L79.9539 170.521C81.4101 171.342 80.9499 172.868 79.8815 173.093Z" fill="#CCCCCC"/>
<path d="M81.2355 179.518L25.3181 191.304C24.9975 191.378 24.6606 191.328 24.3755 191.164C24.0904 190.999 23.8783 190.733 23.7823 190.418C23.7383 190.254 23.7283 190.082 23.7528 189.914C23.7773 189.746 23.8358 189.585 23.9248 189.44C24.0137 189.295 24.1312 189.17 24.2701 189.072C24.4091 188.974 24.5665 188.905 24.7328 188.87L81.3079 176.945C82.7641 177.766 82.3039 179.292 81.2355 179.518Z" fill="#CCCCCC"/>
<path d="M82.5905 185.946L26.6731 197.732C26.3525 197.806 26.0155 197.756 25.7304 197.592C25.4453 197.427 25.2333 197.161 25.1373 196.846C25.0933 196.682 25.0833 196.51 25.1078 196.342C25.1323 196.174 25.1908 196.013 25.2797 195.868C25.3687 195.723 25.4862 195.598 25.6251 195.5C25.764 195.402 25.9215 195.333 26.0878 195.298L82.6629 183.373C84.1191 184.194 83.6588 185.72 82.5905 185.946Z" fill="#CCCCCC"/>
<path d="M83.9445 192.371L28.0271 204.157C27.7065 204.231 27.3695 204.181 27.0844 204.017C26.7993 203.852 26.5873 203.586 26.4913 203.271C26.4473 203.107 26.4373 202.935 26.4618 202.767C26.4863 202.599 26.5448 202.438 26.6337 202.293C26.7227 202.148 26.8402 202.023 26.9791 201.925C27.1181 201.827 27.2755 201.758 27.4418 201.723L84.0169 189.798C85.4731 190.619 85.0128 192.145 83.9445 192.371Z" fill="#CCCCCC"/>
<path d="M93.8154 162.947C93.6884 163.178 93.5797 163.418 93.4905 163.665L70.5987 169.346L66.6163 165.226L59.6133 170.424L65.9544 178.402C66.4667 179.047 67.1743 179.508 67.9708 179.716C68.7674 179.924 69.61 179.868 70.3722 179.557L95.212 169.407C96.0284 170.008 97.0085 170.346 98.0218 170.376C99.0352 170.407 100.034 170.128 100.885 169.577C101.736 169.026 102.399 168.229 102.786 167.292C103.173 166.355 103.265 165.322 103.051 164.331C102.837 163.34 102.326 162.438 101.586 161.745C100.847 161.051 99.9139 160.599 98.9113 160.449C97.9087 160.299 96.8841 160.457 95.9738 160.904C95.0636 161.35 94.3107 162.063 93.8154 162.947Z" fill="#A0616A"/>
<path d="M15.6774 213.499C16.3911 213.278 17.0478 212.904 17.6012 212.403C18.1546 211.901 18.5913 211.284 18.8805 210.595C19.1697 209.907 19.3044 209.163 19.2751 208.417C19.2458 207.67 19.0532 206.94 18.7109 206.276L34.4644 162.489L23.5241 160.551L11.479 204.201C10.4019 204.85 9.60022 205.871 9.22595 207.072C8.85168 208.272 8.93079 209.568 9.4483 210.715C9.96582 211.861 10.8858 212.777 12.0338 213.29C13.1819 213.803 14.4783 213.878 15.6774 213.499Z" fill="#A0616A"/>
<path d="M32.4637 170.262L21.6619 166.116C21.3545 165.998 21.0762 165.816 20.8459 165.58C20.6156 165.345 20.4387 165.063 20.3272 164.753C20.2157 164.443 20.1724 164.113 20.2 163.785C20.2276 163.457 20.3256 163.139 20.4873 162.852L26.154 152.805C26.7665 151.236 27.9761 149.974 29.5176 149.296C31.0592 148.617 32.8068 148.578 34.3774 149.186C35.948 149.794 37.2134 151 37.8962 152.54C38.579 154.079 38.6235 155.827 38.0199 157.399L35.5205 168.622C35.4488 168.943 35.3087 169.245 35.1098 169.508C34.9108 169.77 34.6577 169.986 34.3676 170.142C34.0775 170.297 33.7573 170.389 33.4288 170.409C33.1002 170.43 32.7711 170.38 32.4637 170.262Z" fill="white"/>
<path d="M56.8447 295.706L62.6754 295.706L65.4491 273.216L56.8438 273.216L56.8447 295.706Z" fill="#A0616A"/>
<path d="M55.3574 293.802L66.84 293.802H66.8405C67.8014 293.802 68.753 293.991 69.6408 294.359C70.5286 294.727 71.3353 295.266 72.0148 295.945C72.6944 296.625 73.2334 297.431 73.6011 298.319C73.9689 299.207 74.1581 300.159 74.1581 301.119V301.357L55.3578 301.358L55.3574 293.802Z" fill="#2F2E41"/>
<path d="M24.0293 295.706L29.86 295.706L32.6337 273.216L24.0283 273.216L24.0293 295.706Z" fill="#A0616A"/>
<path d="M22.542 293.802L34.0246 293.802H34.025C34.986 293.802 35.9376 293.991 36.8254 294.359C37.7132 294.727 38.5199 295.266 39.1994 295.945C39.8789 296.625 40.4179 297.431 40.7857 298.319C41.1534 299.207 41.3427 300.159 41.3427 301.119V301.357L22.5424 301.358L22.542 293.802Z" fill="#2F2E41"/>
<path d="M30.1418 286.654H22.7632C22.4736 286.654 22.187 286.595 21.9208 286.481C21.6546 286.367 21.4142 286.2 21.2144 285.991C21.0145 285.781 20.8593 285.533 20.7581 285.262C20.6568 284.991 20.6117 284.702 20.6255 284.412L24.1303 209.111L24.3511 209.105L59.982 208.176L66.9543 283.521C66.9811 283.803 66.9515 284.088 66.8672 284.359C66.7829 284.63 66.6456 284.881 66.4632 285.099C66.2808 285.316 66.0571 285.495 65.8049 285.625C65.5528 285.755 65.2773 285.834 64.9945 285.856L56.7067 286.519C56.1861 286.56 55.6682 286.41 55.2507 286.096C54.8331 285.783 54.5447 285.327 54.4395 284.815L43.8385 231.18C43.8096 231.017 43.7231 230.87 43.595 230.765C43.4668 230.661 43.3053 230.605 43.1398 230.61H43.1369C42.9709 230.606 42.8091 230.662 42.6811 230.768C42.5531 230.874 42.4673 231.022 42.4396 231.186L32.2417 284.927C32.1451 285.413 31.8831 285.851 31.5003 286.166C31.1175 286.481 30.6374 286.653 30.1418 286.654Z" fill="#2F2E41"/>
<path d="M43.6576 141.952C50.1088 141.952 55.3386 136.722 55.3386 130.271C55.3386 123.82 50.1088 118.59 43.6576 118.59C37.2063 118.59 31.9766 123.82 31.9766 130.271C31.9766 136.722 37.2063 141.952 43.6576 141.952Z" fill="#A0616A"/>
<path d="M39.7412 217.936C34.1738 217.936 28.4553 216.472 23.7147 212.145C23.4624 211.917 23.2677 211.632 23.1462 211.313C23.0248 210.995 22.9801 210.653 23.0158 210.314C23.5232 205.755 25.9846 182.216 24.5984 166.492C24.3279 163.555 24.7438 160.595 25.8131 157.846C26.8824 155.097 28.5759 152.635 30.76 150.652C32.9059 148.675 35.482 147.223 38.285 146.411C41.0881 145.599 44.0415 145.45 46.9121 145.975C47.0576 146.001 47.2031 146.029 47.3487 146.057C56.7005 147.867 63.1981 156.522 62.4629 166.189C61.3901 180.295 60.4283 199.375 61.9384 210.166C62.001 210.607 61.9239 211.057 61.718 211.453C61.5121 211.848 61.1876 212.169 60.79 212.371C57.3539 214.107 48.7451 217.936 39.7412 217.936Z" fill="white"/>
<path d="M54.9832 171.102C54.7092 170.92 54.4776 170.681 54.3045 170.401C54.1314 170.121 54.0207 169.807 53.98 169.48L52.5569 158.071C52.1051 156.448 52.3152 154.713 53.141 153.245C53.9668 151.777 55.341 150.696 56.9623 150.24C58.5836 149.784 60.3197 149.989 61.7899 150.811C63.2601 151.632 64.3445 153.004 64.8053 154.624L69.4928 165.163C69.6266 165.464 69.694 165.79 69.6903 166.119C69.6867 166.448 69.6122 166.773 69.4718 167.071C69.3314 167.369 69.1286 167.633 68.8769 167.845C68.6253 168.057 68.3309 168.213 68.0138 168.301L56.8673 171.403C56.5501 171.491 56.2176 171.51 55.8924 171.458C55.5673 171.407 55.2572 171.285 54.9832 171.102Z" fill="white"/>
<path d="M39.5798 141.787C38.4742 141.808 37.3754 141.609 36.3471 141.202C35.8946 141.028 35.4249 140.884 34.9733 140.71C30.9847 139.169 28.3572 134.921 28.2631 130.646C28.169 126.371 30.3829 122.222 33.6702 119.488C36.9575 116.753 41.2154 115.349 45.479 115.025C50.0716 114.675 55.243 115.84 57.8093 119.665C58.4924 120.683 58.9702 121.918 58.5654 123.147C58.4442 123.518 58.2276 123.851 57.9375 124.112C56.7914 125.131 55.6488 124.364 54.4805 124.297C52.8747 124.204 51.4323 125.503 50.9139 127.026C50.3955 128.549 50.6237 130.225 51.0423 131.778C51.3612 132.713 51.5622 133.684 51.6407 134.668C51.6745 135.162 51.5817 135.656 51.371 136.103C51.1604 136.551 50.8389 136.937 50.437 137.226C49.4336 137.833 48.1158 137.482 47.1117 136.876C46.1077 136.27 45.2401 135.428 44.1556 134.983C43.071 134.537 41.6139 134.636 40.9827 135.624C40.7821 135.984 40.6463 136.376 40.5815 136.782C40.0156 139.361 40.1457 139.209 39.5798 141.787Z" fill="#2F2E41"/>
<path d="M91.1557 302H0.793462C0.667327 302 0.546359 301.95 0.457168 301.861C0.367977 301.772 0.317871 301.651 0.317871 301.524C0.317871 301.398 0.367977 301.277 0.457168 301.188C0.546359 301.099 0.667327 301.049 0.793462 301.049H91.1557C91.2818 301.049 91.4028 301.099 91.492 301.188C91.5812 301.277 91.6313 301.398 91.6313 301.524C91.6313 301.651 91.5812 301.772 91.492 301.861C91.4028 301.95 91.2818 302 91.1557 302Z" fill="#CCCCCC"/>
<path d="M322.456 203.852L257.749 240.148C255.878 241.194 253.669 241.456 251.605 240.876C249.542 240.295 247.793 238.92 246.742 237.052L217.193 184.373C216.147 182.502 215.885 180.293 216.466 178.229C217.046 176.166 218.421 174.417 220.29 173.366L284.997 137.07C286.868 136.024 289.077 135.762 291.141 136.343C293.204 136.923 294.953 138.298 296.004 140.167L325.553 192.845C326.599 194.716 326.861 196.925 326.28 198.989C325.7 201.052 324.325 202.801 322.456 203.852Z" fill="white"/>
<path d="M322.456 203.852L257.749 240.148C255.878 241.194 253.669 241.456 251.605 240.876C249.542 240.295 247.793 238.92 246.742 237.052L217.193 184.373C216.147 182.502 215.885 180.293 216.466 178.229C217.046 176.166 218.421 174.417 220.29 173.366L284.997 137.07C286.868 136.024 289.077 135.762 291.141 136.343C293.204 136.923 294.953 138.298 296.004 140.167L325.553 192.845C326.599 194.716 326.861 196.925 326.28 198.989C325.7 201.052 324.325 202.801 322.456 203.852ZM220.755 174.196C219.106 175.123 217.893 176.666 217.381 178.487C216.869 180.308 217.1 182.257 218.023 183.908L247.571 236.586C248.499 238.235 250.042 239.448 251.863 239.961C253.683 240.473 255.633 240.242 257.283 239.318L321.991 203.023C323.64 202.095 324.853 200.552 325.365 198.731C325.877 196.911 325.646 194.961 324.723 193.311L295.174 140.632C294.247 138.983 292.704 137.77 290.883 137.258C289.063 136.746 287.113 136.977 285.463 137.9L220.755 174.196Z" fill="#3F3D56"/>
<path d="M286.516 157.015L253.858 175.333C253.575 175.5 253.238 175.553 252.917 175.481C252.596 175.409 252.314 175.218 252.128 174.947C252.037 174.803 251.976 174.643 251.949 174.475C251.922 174.307 251.93 174.135 251.972 173.971C252.013 173.806 252.088 173.651 252.191 173.516C252.295 173.381 252.424 173.269 252.573 173.186L285.816 154.539C287.45 154.887 287.468 156.481 286.516 157.015Z" fill="#CCCCCC"/>
<path d="M289.728 162.744L257.071 181.062C256.788 181.228 256.451 181.281 256.13 181.21C255.809 181.138 255.527 180.947 255.341 180.675C255.25 180.531 255.189 180.371 255.162 180.203C255.135 180.035 255.143 179.864 255.185 179.699C255.226 179.534 255.301 179.38 255.404 179.245C255.508 179.11 255.637 178.997 255.786 178.914L289.028 160.267C290.663 160.615 290.681 162.21 289.728 162.744Z" fill="#CCCCCC"/>
<path d="M251.841 188.283L241.875 193.874C241.549 194.056 241.164 194.101 240.805 194C240.446 193.899 240.142 193.66 239.959 193.335L233.362 181.573C233.179 181.248 233.134 180.863 233.235 180.504C233.336 180.145 233.575 179.84 233.9 179.657L243.867 174.067C244.193 173.885 244.577 173.839 244.936 173.94C245.296 174.041 245.6 174.281 245.783 174.606L252.38 186.367C252.562 186.693 252.608 187.078 252.507 187.437C252.406 187.796 252.166 188.1 251.841 188.283Z" fill="#CCCCCC"/>
<path d="M296.213 174.526L246.372 202.482C246.088 202.649 245.752 202.702 245.431 202.63C245.109 202.558 244.827 202.367 244.642 202.096C244.551 201.952 244.49 201.792 244.463 201.624C244.436 201.456 244.444 201.284 244.485 201.12C244.527 200.955 244.602 200.8 244.705 200.665C244.808 200.53 244.938 200.418 245.086 200.335L295.513 172.049C297.148 172.397 297.165 173.991 296.213 174.526Z" fill="#CCCCCC"/>
<path d="M299.427 180.256L249.586 208.212C249.302 208.379 248.966 208.432 248.644 208.36C248.323 208.288 248.041 208.097 247.856 207.826C247.765 207.682 247.704 207.521 247.677 207.354C247.65 207.186 247.658 207.014 247.699 206.85C247.741 206.685 247.816 206.53 247.919 206.395C248.022 206.26 248.152 206.148 248.3 206.065L298.727 177.779C300.362 178.127 300.379 179.721 299.427 180.256Z" fill="#CCCCCC"/>
<path d="M302.639 185.982L252.798 213.938C252.514 214.105 252.178 214.158 251.856 214.086C251.535 214.015 251.253 213.823 251.067 213.552C250.976 213.408 250.916 213.248 250.889 213.08C250.862 212.912 250.87 212.74 250.911 212.576C250.953 212.411 251.027 212.256 251.131 212.121C251.234 211.986 251.364 211.874 251.512 211.791L301.939 183.505C303.574 183.853 303.591 185.448 302.639 185.982Z" fill="#CCCCCC"/>
<path d="M305.852 191.711L256.012 219.668C255.728 219.835 255.391 219.888 255.07 219.816C254.749 219.744 254.467 219.553 254.281 219.281C254.19 219.138 254.13 218.977 254.103 218.809C254.076 218.642 254.083 218.47 254.125 218.305C254.167 218.14 254.241 217.986 254.345 217.851C254.448 217.716 254.578 217.604 254.726 217.52L305.153 189.235C306.788 189.583 306.805 191.177 305.852 191.711Z" fill="#CCCCCC"/>
<path d="M309.064 197.438L259.224 225.395C258.94 225.561 258.603 225.614 258.282 225.542C257.961 225.471 257.679 225.28 257.493 225.008C257.402 224.864 257.341 224.704 257.315 224.536C257.288 224.368 257.295 224.197 257.337 224.032C257.379 223.867 257.453 223.712 257.557 223.578C257.66 223.443 257.79 223.33 257.938 223.247L308.365 194.961C310 195.31 310.017 196.904 309.064 197.438Z" fill="#CCCCCC"/>
<path d="M300.369 218.898C300.641 218.299 300.777 217.648 300.77 216.991C300.763 216.334 300.611 215.686 300.326 215.094C300.042 214.501 299.63 213.979 299.122 213.562C298.613 213.146 298.019 212.846 297.382 212.684L296.027 196.764L289.508 201.907L291.795 216.236C291.594 217.324 291.799 218.449 292.371 219.396C292.943 220.343 293.843 221.047 294.9 221.376C295.957 221.704 297.097 221.633 298.105 221.176C299.113 220.719 299.919 219.909 300.369 218.898Z" fill="#FFB8B8"/>
<path d="M296.15 211.017L290.737 211.663C290.461 211.695 290.183 211.671 289.917 211.591C289.652 211.511 289.406 211.377 289.195 211.198C288.984 211.018 288.813 210.797 288.691 210.549C288.569 210.3 288.5 210.028 288.488 209.752L287.699 191.488L277.437 163.454C277.025 162.584 276.838 161.625 276.891 160.664C276.944 159.704 277.237 158.771 277.742 157.952C277.993 157.557 278.281 157.185 278.602 156.843C279.233 156.163 280.02 155.645 280.894 155.335C281.769 155.024 282.706 154.93 283.625 155.059C284.572 155.185 285.475 155.535 286.259 156.08C287.044 156.625 287.687 157.35 288.135 158.193L294.827 172.217C297.627 178.082 298.948 184.544 298.677 191.037L297.922 209.104C297.902 209.577 297.717 210.027 297.397 210.377C297.078 210.726 296.646 210.951 296.177 211.013L296.15 211.017Z" fill="white"/>
<path d="M315.376 289.95L310.357 292.153L299.471 273.842L306.878 270.59L315.376 289.95Z" fill="#FFB8B8"/>
<path d="M318.792 294.254L302.608 301.358L302.518 301.153C302.155 300.326 301.958 299.435 301.939 298.532C301.921 297.629 302.08 296.731 302.408 295.889C302.736 295.047 303.227 294.278 303.852 293.626C304.477 292.974 305.225 292.452 306.052 292.089L315.937 287.75L318.792 294.254Z" fill="#2F2E41"/>
<path d="M247.991 296.044H242.509L239.901 274.901L247.992 274.901L247.991 296.044Z" fill="#FFB8B8"/>
<path d="M249.388 301.358L231.713 301.357V301.134C231.713 300.23 231.891 299.336 232.237 298.501C232.583 297.666 233.09 296.908 233.728 296.269C234.367 295.63 235.126 295.124 235.96 294.778C236.795 294.432 237.69 294.254 238.593 294.254L249.389 294.255L249.388 301.358Z" fill="#2F2E41"/>
<path d="M301.359 288.816L270.823 220.672C270.768 220.544 270.675 220.437 270.556 220.365C270.437 220.292 270.299 220.259 270.16 220.269C270.021 220.279 269.889 220.331 269.781 220.42C269.674 220.508 269.596 220.627 269.56 220.762L250.955 286.581C250.832 287.041 250.549 287.443 250.156 287.713C249.763 287.984 249.287 288.105 248.813 288.055L238.651 287.039C238.128 286.984 237.646 286.727 237.309 286.323C236.972 285.919 236.805 285.399 236.845 284.874C240.077 244.676 245.172 206.736 260.435 181.9L260.516 181.767L283.603 186.294L314.425 284.444C314.578 284.949 314.526 285.494 314.281 285.962C314.037 286.43 313.619 286.784 313.117 286.947L303.822 289.935C303.346 290.09 302.829 290.061 302.374 289.854C301.918 289.647 301.556 289.277 301.359 288.816Z" fill="#2F2E41"/>
<path d="M271.675 146.993C277.74 146.993 282.657 142.076 282.657 136.011C282.657 129.946 277.74 125.029 271.675 125.029C265.61 125.029 260.693 129.946 260.693 136.011C260.693 142.076 265.61 146.993 271.675 146.993Z" fill="#FFB8B8"/>
<path d="M259.016 183.801L258.876 183.772L258.843 183.633C257.364 177.386 257.328 170.568 258.738 163.37C259.454 159.691 261.444 156.383 264.359 154.027C267.274 151.672 270.927 150.421 274.674 150.494C278.74 150.576 282.621 152.209 285.522 155.059C288.424 157.908 290.126 161.759 290.282 165.822C290.753 178.203 285.694 188.936 285.642 189.043L285.567 189.201L259.016 183.801Z" fill="white"/>
<path d="M229.577 204.693C230.227 204.597 230.849 204.359 231.397 203.997C231.946 203.635 232.408 203.157 232.752 202.597C233.096 202.036 233.312 201.407 233.387 200.754C233.461 200.101 233.392 199.44 233.183 198.817L245.832 189.055L237.978 186.36L227.171 196.043C226.147 196.464 225.313 197.245 224.827 198.239C224.34 199.233 224.235 200.371 224.532 201.437C224.829 202.503 225.506 203.423 226.436 204.023C227.366 204.624 228.483 204.862 229.577 204.693Z" fill="#FFB8B8"/>
<path d="M236.486 197.331C236.074 197.574 235.589 197.662 235.118 197.579C234.647 197.496 234.221 197.247 233.917 196.878L230.443 192.676C230.266 192.463 230.135 192.215 230.059 191.949C229.983 191.683 229.962 191.404 229.999 191.129C230.035 190.854 230.128 190.59 230.271 190.353C230.414 190.116 230.605 189.911 230.831 189.751L245.757 179.196L263.765 155.386C264.274 154.569 264.978 153.892 265.815 153.416C266.651 152.941 267.593 152.682 268.555 152.663C269.024 152.66 269.492 152.701 269.953 152.785C270.867 152.947 271.728 153.328 272.463 153.895C273.198 154.462 273.785 155.199 274.173 156.042C274.58 156.906 274.775 157.854 274.742 158.809C274.708 159.763 274.448 160.696 273.982 161.53L260.647 183.125L260.618 183.172L236.486 197.331Z" fill="white"/>
<path d="M273.639 135.33C272.829 133.998 271.043 133.622 269.493 133.774C267.942 133.926 266.434 134.471 264.876 134.459C260.549 134.425 257.21 129.152 259.029 125.227C260.52 122.007 264.246 120.594 267.616 119.484C274.683 117.158 282.8 114.923 289.212 118.695C291.255 119.932 292.931 121.693 294.067 123.795C295.202 125.897 295.756 128.264 295.671 130.651C295.526 133.619 294.389 136.669 295.351 139.481C296.46 142.725 299.977 144.466 303.301 145.308C309.127 146.784 315.27 146.546 321.133 147.87C326.995 149.194 333.003 152.709 334.583 158.508C335.621 162.317 334.538 166.417 332.744 169.934C330.914 173.522 328.371 176.698 325.27 179.269C322.17 181.84 318.577 183.751 314.712 184.884C310.847 186.018 306.791 186.351 302.793 185.862C298.795 185.373 294.939 184.074 291.461 182.043C284.373 177.904 279.256 170.91 276.206 163.29C274.476 158.846 273.258 154.219 272.576 149.498C271.893 145.08 272.473 140.615 273.71 136.318C273.769 136.158 273.792 135.987 273.78 135.816C273.768 135.646 273.72 135.48 273.639 135.33Z" fill="#2F2E41"/>
<path d="M313.256 302H222.894C222.768 302 222.647 301.95 222.558 301.861C222.469 301.772 222.418 301.651 222.418 301.524C222.418 301.398 222.469 301.277 222.558 301.188C222.647 301.099 222.768 301.049 222.894 301.049H313.256C313.382 301.049 313.503 301.099 313.593 301.188C313.682 301.277 313.732 301.398 313.732 301.524C313.732 301.651 313.682 301.772 313.593 301.861C313.503 301.95 313.382 302 313.256 302Z" fill="#CCCCCC"/>
</g>
<defs>
<clipPath id="clip0_105_1901">
<rect width="334.988" height="302" fill="white"/>
</clipPath>
</defs>
</svg>
